<?xml version="1.0" encoding="UTF-8" standalone="no"?><!DOCTYPE svg PUBLIC "-//W3C//DTD SVG 1.1//EN" "http://www.w3.org/Graphics/SVG/1.1/DTD/svg11.dtd"><svg width="100%" height="100%" viewBox="0 0 612 200" version="1.1" xmlns="http://www.w3.org/2000/svg" xmlns:xlink="http://www.w3.org/1999/xlink" xml:space="preserve" xmlns:serif="http://www.serif.com/" style="fill-rule:evenodd;clip-rule:evenodd;stroke-linejoin:round;stroke-miterlimit:2;"><g id="Layer-1" serif:id="Layer 1"><path d="M577.314,95.284c-10.411,-2.469 -12.88,-4.32 -12.88,-8.486l0,-0.154c0,-3.548 3.239,-6.402 8.792,-6.402c4.243,0 8.254,1.388 12.418,4.088c0.772,0.463 1.542,0.694 2.469,0.694c2.467,0 4.473,-1.928 4.473,-4.397c0,-1.851 -1.003,-3.163 -2.082,-3.78c-4.86,-3.241 -10.335,-5.014 -17.123,-5.014c-10.721,0 -18.434,6.402 -18.434,15.659l0,0.155c0,9.951 6.48,13.345 17.971,16.124c10.027,2.313 12.186,4.396 12.186,8.253l0,0.155c0,4.012 -3.702,6.788 -9.564,6.788c-5.862,0 -10.643,-2.006 -15.116,-5.554c-0.618,-0.463 -1.465,-0.849 -2.778,-0.849c-2.467,0 -4.473,1.929 -4.473,4.397c0,1.543 0.772,2.855 1.852,3.627c6.015,4.474 12.957,6.788 20.284,6.788c11.338,0 19.283,-6.018 19.283,-16.123l0,-0.154c0,-8.949 -5.863,-13.038 -17.278,-15.815m-49.664,1.08l16.813,-16.2c1.079,-1.003 1.697,-2.083 1.697,-3.549c0,-2.314 -1.774,-4.397 -4.396,-4.397c-1.698,0 -2.854,0.617 -3.935,1.775l-25.605,25.765l0,-22.834c0,-2.623 -2.082,-4.706 -4.705,-4.706c-2.699,0 -4.782,2.083 -4.782,4.706l0,45.361c0,2.622 2.083,4.705 4.782,4.705c2.623,0 4.705,-2.083 4.705,-4.705l0,-11.186l8.792,-8.486l17.354,22.14c1.003,1.311 2.16,2.237 4.011,2.237c2.699,0 4.782,-2.006 4.782,-4.629c0,-1.465 -0.54,-2.391 -1.311,-3.394l-18.202,-22.603Zm-39.337,16.123c-1.156,0 -2.159,0.463 -2.853,1.08c-3.934,3.317 -7.79,5.168 -13.498,5.168c-10.334,0 -17.816,-8.562 -17.816,-19.131l0,-0.154c0,-10.569 7.559,-19.055 17.816,-19.055c5.169,0 9.18,1.851 12.882,4.861c0.616,0.462 1.542,0.925 2.853,0.925c2.622,0 4.705,-2.006 4.705,-4.629c0,-1.697 -0.848,-3.008 -1.851,-3.779c-4.705,-3.626 -10.181,-6.095 -18.511,-6.095c-16.351,0 -27.843,12.575 -27.843,27.926l0,0.154c0,15.507 11.724,27.773 27.458,27.773c8.715,0 14.499,-2.778 19.59,-7.252c0.848,-0.771 1.543,-1.928 1.543,-3.395c0,-2.391 -2.084,-4.397 -4.475,-4.397m-60.081,-40.269c-2.699,0 -4.781,2.083 -4.781,4.706l0,45.361c0,2.622 2.082,4.705 4.781,4.705c2.622,0 4.704,-2.083 4.704,-4.705l0,-45.361c0,-2.623 -2.082,-4.706 -4.704,-4.706m-25.838,18.13c0,5.476 -4.32,9.025 -11.106,9.025l-13.884,0l0,-18.129l13.807,0c7.018,0 11.183,3.162 11.183,8.948l0,0.156Zm-10.412,-17.744l-19.282,0c-2.699,0 -4.782,2.083 -4.782,4.783l0,44.898c0,2.622 2.083,4.705 4.782,4.705c2.623,0 4.704,-2.083 4.704,-4.705l0,-14.503l11.956,0l13.111,16.739c1.08,1.466 2.468,2.469 4.628,2.469c2.313,0 4.55,-1.774 4.55,-4.398c0,-1.465 -0.616,-2.467 -1.543,-3.625l-10.335,-13.037c7.25,-2.237 12.263,-7.483 12.263,-16.123l0,-0.155c0,-4.705 -1.619,-8.716 -4.473,-11.648c-3.471,-3.394 -8.792,-5.4 -15.579,-5.4m-37.253,0l-35.864,0c-2.468,0 -4.397,2.006 -4.397,4.397c0,2.391 1.929,4.398 4.397,4.398l13.111,0l0,40.886c0,2.622 2.16,4.705 4.781,4.705c2.623,0 4.783,-2.083 4.783,-4.705l0,-40.886l13.189,0c2.391,0 4.319,-2.007 4.319,-4.398c0,-2.391 -1.928,-4.397 -4.319,-4.397m-43.724,25.766l-14.501,0c-2.467,0 -4.55,2.082 -4.55,4.629c0,2.469 2.083,4.551 4.55,4.551l14.501,0c2.468,0 4.55,-2.082 4.55,-4.551c0,-2.547 -2.082,-4.629 -4.55,-4.629m-43.733,-3.086c-10.412,-2.469 -12.881,-4.32 -12.881,-8.486l0,-0.154c0,-3.548 3.24,-6.402 8.794,-6.402c4.241,0 8.253,1.388 12.417,4.088c0.771,0.463 1.543,0.694 2.468,0.694c2.468,0 4.473,-1.928 4.473,-4.397c0,-1.851 -1.002,-3.163 -2.082,-3.78c-4.859,-3.241 -10.335,-5.014 -17.123,-5.014c-10.72,0 -18.433,6.402 -18.433,15.659l0,0.155c0,9.951 6.479,13.345 17.971,16.124c10.027,2.313 12.187,4.396 12.187,8.253l0,0.155c0,4.012 -3.703,6.788 -9.565,6.788c-5.861,0 -10.643,-2.006 -15.117,-5.554c-0.616,-0.463 -1.465,-0.849 -2.776,-0.849c-2.468,0 -4.474,1.929 -4.474,4.397c0,1.543 0.772,2.855 1.852,3.627c6.016,4.474 12.957,6.788 20.284,6.788c11.338,0 19.281,-6.018 19.281,-16.123l0,-0.154c0,-8.949 -5.861,-13.038 -17.276,-15.815m-47.819,0c-10.412,-2.469 -12.881,-4.32 -12.881,-8.486l0,-0.154c0,-3.548 3.24,-6.402 8.793,-6.402c4.243,0 8.253,1.388 12.418,4.088c0.771,0.463 1.543,0.694 2.468,0.694c2.468,0 4.473,-1.928 4.473,-4.397c0,-1.851 -1.003,-3.163 -2.082,-3.78c-4.859,-3.241 -10.335,-5.014 -17.123,-5.014c-10.72,0 -18.433,6.402 -18.433,15.659l0,0.155c0,9.951 6.479,13.345 17.971,16.124c10.026,2.313 12.185,4.396 12.185,8.253l0,0.155c0,4.012 -3.701,6.788 -9.563,6.788c-5.862,0 -10.644,-2.006 -15.117,-5.554c-0.617,-0.463 -1.465,-0.849 -2.777,-0.849c-2.467,0 -4.473,1.929 -4.473,4.397c0,1.543 0.771,2.855 1.851,3.627c6.016,4.474 12.957,6.788 20.285,6.788c11.337,0 19.281,-6.018 19.281,-16.123l0,-0.154c0,-8.949 -5.861,-13.038 -17.276,-15.815m-35.324,17.203c-1.158,0 -2.16,0.463 -2.855,1.08c-3.933,3.317 -7.789,5.168 -13.496,5.168c-10.336,0 -17.817,-8.562 -17.817,-19.131l0,-0.154c0,-10.569 7.558,-19.055 17.817,-19.055c5.167,0 9.177,1.851 12.879,4.861c0.617,0.462 1.544,0.925 2.854,0.925c2.622,0 4.705,-2.006 4.705,-4.629c0,-1.697 -0.849,-3.008 -1.852,-3.779c-4.704,-3.626 -10.18,-6.095 -18.51,-6.095c-16.351,0 -27.843,12.575 -27.843,27.926l0,0.154c0,15.507 11.723,27.773 27.458,27.773c8.715,0 14.5,-2.778 19.589,-7.252c0.849,-0.771 1.544,-1.928 1.544,-3.395c0,-2.391 -2.083,-4.397 -4.473,-4.397" style="fill:#fff;fill-rule:nonzero;"/><path d="M63.596,112.706l-25.856,18.961c-3.102,2.068 -5.516,3.447 -8.618,3.447c-6.206,0 -11.377,-5.516 -11.377,-11.722c0,-5.171 4.138,-8.964 7.93,-10.686l30.337,-13.102l-30.337,-13.444c-4.137,-1.724 -7.93,-5.516 -7.93,-10.688c0,-6.205 5.516,-11.376 11.722,-11.376c3.103,0 5.171,1.034 8.273,3.448l25.856,18.96l-3.447,-30.682c-1.034,-7.239 3.793,-13.101 10.687,-13.101c6.895,0 11.722,5.516 10.687,12.756l-3.447,31.027l25.856,-18.96c3.103,-2.414 5.516,-3.448 8.619,-3.448c6.205,0 11.376,5.171 11.376,11.376c0,5.516 -3.792,8.964 -7.928,10.688l-30.339,13.444l30.339,13.102c4.136,1.722 7.928,5.515 7.928,11.032c0,6.205 -5.516,11.376 -11.721,11.376c-2.758,0 -5.171,-1.379 -8.274,-3.447l-25.856,-18.961l3.447,30.681c1.035,7.24 -3.792,13.101 -10.687,13.101c-6.894,0 -11.721,-5.516 -10.687,-12.756l3.447,-31.026Z" style="fill:#ff8900;fill-rule:nonzero;"/></g></svg>